<svg xmlns="http://www.w3.org/2000/svg" width="1365.333" height="1365.333" preserveAspectRatio="xMidYMid meet" version="1.0" viewBox="0 0 1024 1024"><metadata>Created by potrace 1.14, written by Peter Selinger 2001-2017</metadata><g fill="#000" stroke="none"><path d="M2729 8656 c-2 -2 -29 -7 -59 -10 -121 -13 -150 -18 -285 -51 -419 -103 -778 -326 -1069 -666 -206 -240 -339 -492 -409 -774 -14 -55 -28 -120 -32 -145 -4 -25 -9 -54 -11 -65 -10 -53 -17 -161 -17 -289 -1 -204 13 -311 68 -541 32 -136 149 -388 248 -536 111 -168 310 -381 462 -495 28 -21 52 -41 55 -44 3 -3 37 -26 75 -51 202 -132 392 -216 616 -273 l133 -34 1 -1621 0 -1621 412 0 413 0 0 630 c0 347 3 631 8 631 4 1 212 2 462 4 271 1 490 7 542 14 241 32 454 115 633 246 81 60 218 191 261 250 16 22 32 42 35 45 14 11 92 146 118 204 44 97 85 236 99 339 14 102 7 367 -12 457 -68 322 -236 577 -513 778 -79 58 -264 156 -318 169 -5 1 -44 12 -85 23 l-75 22 62 66 63 66 0 718 0 718 -755 0 -755 0 0 -303 0 -302 333 1 c182 0 337 -2 344 -4 8 -2 11 -75 11 -260 -1 -223 -3 -259 -17 -272 -59 -57 -141 -114 -216 -150 -87 -41 -235 -94 -291 -103 -16 -3 -40 -8 -54 -11 -63 -14 -105 -18 -240 -21 -418 -8 -736 130 -1010 440 -95 107 -192 289 -235 440 -73 256 -67 575 15 812 144 416 495 721 933 809 95 19 332 26 427 13 129 -18 292 -67 421 -127 150 -69 336 -219 446 -359 l41 -52 260 261 261 261 -32 45 c-104 148 -416 396 -644 513 -121 62 -358 143 -483 165 -14 3 -32 7 -40 9 -8 3 -35 7 -60 11 -25 3 -56 8 -70 10 -30 6 -466 15 -471 10z m1536 -4130 c207 -59 357 -216 399 -418 26 -125 2 -279 -61 -387 -36 -61 -130 -153 -203 -195 -120 -71 -151 -74 -637 -75 l-433 -1 0 549 0 549 438 -2 c376 -2 445 -5 497 -20z" transform="translate(0.000000,1024.000000) scale(0.100000,-0.100000)"/><path d="M5514 6658 l0 -1923 360 -5 360 -5 0 -1642 0 -1643 413 0 413 0 0 258 c1 141 1 445 1 675 l0 417 358 0 357 0 22 -43 c12 -23 36 -67 53 -97 17 -30 50 -89 72 -130 22 -41 57 -104 77 -140 34 -59 74 -133 135 -245 51 -94 99 -183 120 -220 46 -81 67 -119 112 -203 26 -48 58 -107 73 -132 14 -25 37 -66 50 -93 l25 -47 444 0 c353 0 441 3 433 13 -5 6 -30 48 -54 92 -25 44 -57 103 -73 130 -16 28 -143 253 -283 500 -140 248 -264 466 -274 485 -11 19 -44 78 -74 131 -30 52 -54 99 -54 105 0 5 24 20 52 34 116 56 277 199 394 351 42 55 144 244 144 268 0 6 4 19 9 29 11 20 39 108 46 143 6 30 14 67 21 99 11 46 13 314 3 385 -47 335 -223 629 -499 834 -78 58 -291 171 -322 171 -10 0 -28 17 -42 38 -43 68 -526 928 -526 938 0 5 27 22 60 38 111 54 275 201 383 343 78 102 181 328 202 442 3 14 7 37 10 51 28 131 28 391 1 520 -38 176 -126 371 -223 491 -203 253 -455 413 -743 474 -36 8 -79 17 -95 21 -17 4 -460 9 -985 11 l-956 4 0 -1923z m1851 1152 c217 -70 356 -270 349 -506 -4 -179 -103 -338 -260 -421 -112 -59 -140 -62 -651 -63 l-463 0 0 508 0 509 478 -2 c467 -2 479 -2 547 -25z m-262 -1819 c26 -47 60 -108 75 -136 16 -27 44 -79 64 -115 20 -36 47 -85 60 -110 14 -25 53 -97 88 -160 34 -63 71 -130 82 -147 l20 -33 -575 0 -576 0 1 394 0 393 357 1 358 0 46 -87z m930 -1457 c97 -20 197 -76 261 -145 68 -73 104 -140 126 -234 55 -237 -48 -462 -262 -571 -100 -51 -137 -54 -635 -54 l-463 0 1 504 c0 277 2 506 5 508 2 3 208 5 456 5 318 0 469 -4 511 -13z" transform="translate(0.000000,1024.000000) scale(0.100000,-0.100000)"/></g></svg>